<svg xmlns="http://www.w3.org/2000/svg" width="72" height="72">
    <path data-name="Path 5597" d="M0 0h72v72H0z" style="fill-rule:evenodd;fill:none"/>
    <path data-name="Path 5598" d="M63.391 20.947a1.709 1.709 0 0 1 1.709 1.71v33.082a1.709 1.709 0 0 1-1.709 1.709H15.943a1.709 1.709 0 0 1-1.709-1.709V51.4H57.36a1.709 1.709 0 0 0 1.7-1.56l.006-.148V20.947h4.324z" style="fill:rgba(0,43,62,.4);fill-rule:evenodd"/>
    <path data-name="Path 5599" d="M57.361 13.1a3.509 3.509 0 0 1 3.51 3.509v2.537h2.522a3.509 3.509 0 0 1 3.5 3.317V55.74a3.509 3.509 0 0 1-3.316 3.5H15.943a3.509 3.509 0 0 1-3.5-3.316V53.2H9.912a3.509 3.509 0 0 1-3.5-3.315l-.012-.193V16.609A3.509 3.509 0 0 1 9.913 13.1zm3.508 7.846v28.746a3.509 3.509 0 0 1-3.508 3.508H14.233v2.54a1.71 1.71 0 0 0 1.562 1.7l.147.006h47.449a1.71 1.71 0 0 0 1.7-1.561l.006-.148V22.656a1.708 1.708 0 0 0-1.561-1.7l-.148-.007zm-1.8 19.554H8.2v9.195a1.709 1.709 0 0 0 1.562 1.7l.147.006h47.452a1.709 1.709 0 0 0 1.7-1.56l.006-.148V40.5zm-1.708-25.6H9.913A1.709 1.709 0 0 0 8.2 16.609V38.7h50.87V16.609a1.71 1.71 0 0 0-1.561-1.7l-.148-.006zM23.61 21.578a3.509 3.509 0 0 1 3.508 3.509V27.7a3.509 3.509 0 0 1-3.508 3.5h-5.22a3.509 3.509 0 0 1-3.508-3.5v-2.613a3.509 3.509 0 0 1 3.508-3.509zm0 1.8h-5.22a1.709 1.709 0 0 0-1.708 1.709V27.7a1.708 1.708 0 0 0 1.708 1.7h5.218a1.708 1.708 0 0 0 1.708-1.7v-2.613a1.709 1.709 0 0 0-1.708-1.709z" style="fill:#475c6d"/>
</svg>
