<svg xmlns="http://www.w3.org/2000/svg" width="72" height="72">
    <path data-name="Path 5631" d="M0 0h72v72H0z" style="fill-rule:evenodd;fill:none"/>
    <path data-name="Path 5632" d="M13.6 16.742a3.389 3.389 0 0 1 3.389-3.389h2.38v-2.364a3.389 3.389 0 0 1 3.2-3.384h31.753a3.389 3.389 0 0 1 3.384 3.2l.005.186v45.27a3.389 3.389 0 0 1-3.2 3.383l-.186.005h-2.384v2.364a3.389 3.389 0 0 1-3.2 3.384H16.989a3.389 3.389 0 0 1-3.389-3.386zm7.57-5.753v2.365h27.383a3.389 3.389 0 0 1 3.383 3.2l.005.186v41.1h2.381A1.59 1.59 0 0 0 55.9 56.4l.006-.145V10.988a1.59 1.59 0 0 0-1.444-1.582l-.14-.006H22.76a1.59 1.59 0 0 0-1.583 1.444l-.006.145zm-5.77 5.753v45.27a1.588 1.588 0 0 0 1.589 1.588h31.564a1.588 1.588 0 0 0 1.588-1.589v-45.27a1.588 1.588 0 0 0-1.588-1.588H16.989a1.588 1.588 0 0 0-1.589 1.589zm6.351 16.8a.9.9 0 0 1 .9-.9h18.107l.113.007a.9.9 0 0 1-.113 1.793H22.65l-.113-.007a.9.9 0 0 1-.787-.893zm0 4.978a.9.9 0 0 1 .9-.9h16.862l.113.007a.9.9 0 0 1-.113 1.793H22.651l-.113-.007a.9.9 0 0 1-.787-.891zm0-9.955a.9.9 0 0 1 .9-.9h14.373l.113.007a.9.9 0 0 1-.113 1.793H22.651l-.113-.007a.9.9 0 0 1-.787-.891zm0 14.933a.9.9 0 0 1 .9-.9h9.4l.113.007a.9.9 0 0 1-.113 1.793h-9.4l-.113-.007a.9.9 0 0 1-.787-.893z" style="fill:#475c6d"/>
    <path data-name="Path 5633" d="M21.17 10.989A1.588 1.588 0 0 1 22.759 9.4h31.563a1.589 1.589 0 0 1 1.59 1.589v45.27a1.589 1.589 0 0 1-1.59 1.588h-2.381V16.742a3.389 3.389 0 0 0-3.388-3.389H21.169v-2.364z" style="fill:rgba(0,43,62,.4);fill-rule:evenodd"/>
</svg>
