<svg xmlns="http://www.w3.org/2000/svg" width="72.021" height="72.021" viewBox="0 0 72.021 72.021">
  <g id="Group_23588" data-name="Group 23588" transform="translate(-737 -797)">
    <path id="Shape" d="M0,0H72.021V72.021H0Z" transform="translate(737 797)" fill="none"/>
    <g id="Group_10152" data-name="Group 10152" transform="translate(740.75 806.753)">
      <g id="Group_12" data-name="Group 12" transform="translate(0 31.463)">
        <g id="Group_11" data-name="Group 11">
          <g id="Group_2" data-name="Group 2">
            <path id="Path" d="M31.585,15.754a2.251,2.251,0,0,1-.258-.015,26.7,26.7,0,0,1-3.011-.524,19.983,19.983,0,0,1-2.873-.924L12.923,10.758,2.215,14.339A2.251,2.251,0,0,1,.787,10.07l11.366-3.8a2.251,2.251,0,0,1,1.325-.032l13.3,3.753a2.259,2.259,0,0,1,.216.073,16.142,16.142,0,0,0,2.337.766c.759.175,1.459.3,2.178.4,9-1.746,18.138-3.567,26.987-5.33a1.118,1.118,0,0,0,.733-1.289l-.006-.018a1.544,1.544,0,0,0-1.868-.782l-.067.015c-2.743.579-5.542,1.154-8.249,1.71s-5.495,1.129-8.227,1.706a2.251,2.251,0,0,1-.582.045L34.7,6.994q-.109-.006-.217-.022L24.889,5.529a2.251,2.251,0,1,1,.67-4.451L35.044,2.5l5.124.268c2.65-.558,5.349-1.113,7.961-1.65C50.821.57,53.6,0,56.325-.576A6.026,6.026,0,0,1,63.49,3.165,5.622,5.622,0,0,1,59.844,10.2a2.252,2.252,0,0,1-.29.078c-9.026,1.8-18.359,3.658-27.54,5.439A2.25,2.25,0,0,1,31.585,15.754Z" transform="translate(0.75 9.86)" fill="#475c6d"/>
            <path id="Path-2" data-name="Path" d="M41.824,15.826a2.251,2.251,0,0,1-1.208-4.151,1.774,1.774,0,0,0,.647-1.109,2.02,2.02,0,0,0-1.668-1.821l-.059-.014c-3.272-.821-6.6-1.67-9.813-2.491-2.983-.762-6.061-1.548-9.1-2.312C14.608,6.268,8.406,8.677,2.3,11A2.251,2.251,0,1,1,.7,6.787c6.316-2.4,12.743-4.9,18.957-7.313l.668-.26.7.174c3.272.821,6.6,1.67,9.813,2.491S37.348,3.543,40.6,4.359a6.464,6.464,0,0,1,5.152,6.478,6.139,6.139,0,0,1-2.841,4.706A2.241,2.241,0,0,1,41.824,15.826Z" transform="translate(0.75 0.786)" fill="#475c6d"/>
          </g>
        </g>
      </g>
      <g id="Group" transform="translate(24.008 0)">
        <path id="Rectangle-path" d="M5.26,28.509H2.251a2.251,2.251,0,0,1,0-4.5H5.26a6.76,6.76,0,0,0,6.752-6.752v-6A6.76,6.76,0,0,0,5.26,4.5H2.251a2.251,2.251,0,0,1,0-4.5H5.26A11.266,11.266,0,0,1,16.514,11.253v6A11.266,11.266,0,0,1,5.26,28.509Z" transform="translate(19.463 28.509) rotate(180)" fill="#475c6d"/>
        <path id="Shape-2" data-name="Shape" d="M13.462,4.751H1.5a2.251,2.251,0,1,1,0-4.5H13.462a2.251,2.251,0,0,1,0,4.5Z" transform="translate(0.75 8.753)" fill="#475c6d"/>
        <path id="Shape-3" data-name="Shape" d="M13.462,4.751H1.5a2.251,2.251,0,1,1,0-4.5H13.462a2.251,2.251,0,0,1,0,4.5Z" transform="translate(0.75 14.754)" fill="#475c6d"/>
      </g>
    </g>
  </g>
</svg>
