<svg width="126" height="24" viewBox="0 0 126 24" fill="none" xmlns="http://www.w3.org/2000/svg">
<g opacity="0.7">
<path d="M0.845329 14.4906V8.38868H2.80665C3.2948 8.38868 3.69578 8.47004 4.00959 8.63275C4.3234 8.79547 4.55586 9.0163 4.70695 9.29525C4.85805 9.56838 4.93359 9.87928 4.93359 10.228C4.93359 10.5708 4.85805 10.8817 4.70695 11.1607C4.55586 11.4396 4.3234 11.6605 4.00959 11.8232C3.70159 11.9859 3.30061 12.0672 2.80665 12.0672H1.57756V14.4906H0.845329ZM1.57756 11.4483H2.79793C3.30933 11.4483 3.66673 11.3379 3.87012 11.1171C4.07933 10.8905 4.18393 10.5941 4.18393 10.228C4.18393 9.84442 4.07933 9.54513 3.87012 9.33011C3.66673 9.10928 3.30933 8.99887 2.79793 8.99887H1.57756V11.4483ZM7.59827 14.5952C7.17404 14.5952 6.79921 14.4964 6.47378 14.2988C6.14834 14.1012 5.89555 13.8223 5.7154 13.462C5.53525 13.1017 5.44517 12.6803 5.44517 12.198C5.44517 11.7098 5.53525 11.2885 5.7154 10.934C5.90136 10.5737 6.15706 10.2948 6.48249 10.0972C6.81374 9.89962 7.19147 9.80083 7.6157 9.80083C8.04574 9.80083 8.42057 9.89962 8.74019 10.0972C9.06562 10.2948 9.31842 10.5737 9.49857 10.934C9.67872 11.2885 9.76879 11.7098 9.76879 12.198C9.76879 12.6803 9.67581 13.1017 9.48985 13.462C9.3097 13.8223 9.05691 14.1012 8.73147 14.2988C8.40604 14.4964 8.0283 14.5952 7.59827 14.5952ZM7.59827 13.9675C7.86559 13.9675 8.10676 13.9036 8.32178 13.7758C8.53679 13.6421 8.70532 13.4445 8.82736 13.183C8.95521 12.9157 9.01913 12.5874 9.01913 12.198C9.01913 11.8028 8.95811 11.4745 8.83608 11.213C8.71404 10.9515 8.54551 10.7568 8.33049 10.6289C8.12128 10.4953 7.88302 10.4285 7.6157 10.4285C7.35419 10.4285 7.11593 10.4953 6.90091 10.6289C6.68589 10.7568 6.51445 10.9515 6.38661 11.213C6.25876 11.4745 6.19483 11.8028 6.19483 12.198C6.19483 12.5874 6.25585 12.9157 6.37789 13.183C6.50574 13.4445 6.67427 13.6421 6.88347 13.7758C7.09849 13.9036 7.33676 13.9675 7.59827 13.9675ZM11.6179 14.4906L10.2668 9.90543H10.999L12.0014 13.5578L13.0649 9.90543H13.893L14.9652 13.5491L15.9589 9.90543H16.6999L15.3488 14.4906H14.5991L13.4833 10.6725L12.3675 14.4906H11.6179ZM19.276 14.5952C18.8692 14.5952 18.5089 14.4964 18.1951 14.2988C17.8813 14.1012 17.6343 13.8223 17.4542 13.462C17.2798 13.1017 17.1927 12.6803 17.1927 12.198C17.1927 11.7157 17.2798 11.2943 17.4542 10.934C17.6343 10.5737 17.8813 10.2948 18.1951 10.0972C18.5147 9.89962 18.8809 9.80083 19.2935 9.80083C19.7351 9.80083 20.1041 9.89962 20.4005 10.0972C20.6969 10.2948 20.9206 10.5592 21.0717 10.8905C21.2228 11.2217 21.2984 11.5849 21.2984 11.9801C21.2984 12.0382 21.2984 12.0963 21.2984 12.1544C21.2984 12.2125 21.2955 12.2823 21.2896 12.3636H17.7418V11.797H20.5836C20.5719 11.3495 20.4412 11.0096 20.1913 10.7771C19.9472 10.5389 19.6421 10.4197 19.276 10.4197C19.0319 10.4197 18.8053 10.4808 18.5961 10.6028C18.3927 10.719 18.2271 10.8934 18.0992 11.1258C17.9714 11.3583 17.9075 11.6488 17.9075 11.9975V12.2416C17.9075 12.6251 17.9714 12.9477 18.0992 13.2092C18.2271 13.4649 18.3927 13.6566 18.5961 13.7845C18.8053 13.9123 19.0319 13.9763 19.276 13.9763C19.6015 13.9763 19.8572 13.9152 20.0431 13.7932C20.2291 13.6654 20.3656 13.4852 20.4528 13.2528H21.1763C21.1066 13.5085 20.9846 13.738 20.8102 13.9414C20.6417 14.1448 20.4267 14.3046 20.1652 14.4208C19.9095 14.5371 19.6131 14.5952 19.276 14.5952ZM22.3131 14.4906V9.90543H22.9756L23.0279 10.7423C23.1325 10.5331 23.269 10.3587 23.4376 10.2192C23.6061 10.0798 23.8095 9.97517 24.0478 9.90543C24.2918 9.8357 24.565 9.80083 24.8671 9.80083V10.5679H24.4139C24.2395 10.5679 24.071 10.5912 23.9083 10.6377C23.7456 10.6842 23.5974 10.7597 23.4637 10.8643C23.3359 10.9689 23.2342 11.1113 23.1586 11.2914C23.0831 11.4716 23.0453 11.6982 23.0453 11.9714V14.4906H22.3131ZM27.4482 14.5952C27.0414 14.5952 26.6811 14.4964 26.3673 14.2988C26.0535 14.1012 25.8065 13.8223 25.6263 13.462C25.452 13.1017 25.3648 12.6803 25.3648 12.198C25.3648 11.7157 25.452 11.2943 25.6263 10.934C25.8065 10.5737 26.0535 10.2948 26.3673 10.0972C26.6869 9.89962 27.053 9.80083 27.4656 9.80083C27.9073 9.80083 28.2763 9.89962 28.5727 10.0972C28.8691 10.2948 29.0928 10.5592 29.2439 10.8905C29.395 11.2217 29.4705 11.5849 29.4705 11.9801C29.4705 12.0382 29.4705 12.0963 29.4705 12.1544C29.4705 12.2125 29.4676 12.2823 29.4618 12.3636H25.914V11.797H28.7557C28.7441 11.3495 28.6134 11.0096 28.3635 10.7771C28.1194 10.5389 27.8143 10.4197 27.4482 10.4197C27.2041 10.4197 26.9775 10.4808 26.7683 10.6028C26.5649 10.719 26.3992 10.8934 26.2714 11.1258C26.1436 11.3583 26.0796 11.6488 26.0796 11.9975V12.2416C26.0796 12.6251 26.1436 12.9477 26.2714 13.2092C26.3992 13.4649 26.5649 13.6566 26.7683 13.7845C26.9775 13.9123 27.2041 13.9763 27.4482 13.9763C27.7736 13.9763 28.0293 13.9152 28.2153 13.7932C28.4012 13.6654 28.5378 13.4852 28.625 13.2528H29.3485C29.2788 13.5085 29.1567 13.738 28.9824 13.9414C28.8139 14.1448 28.5988 14.3046 28.3373 14.4208C28.0816 14.5371 27.7852 14.5952 27.4482 14.5952ZM32.3768 14.5952C31.97 14.5952 31.6097 14.4906 31.2959 14.2814C30.9821 14.0722 30.738 13.7874 30.5637 13.4271C30.3894 13.061 30.3022 12.6484 30.3022 12.1893C30.3022 11.7244 30.3894 11.3147 30.5637 10.9602C30.738 10.5999 30.9821 10.318 31.2959 10.1146C31.6097 9.90543 31.9729 9.80083 32.3855 9.80083C32.7458 9.80083 33.0538 9.87347 33.3095 10.0188C33.5711 10.164 33.7774 10.3674 33.9285 10.6289V8.21434H34.6607V14.4906H33.9982L33.9372 13.7583C33.85 13.9036 33.7338 14.0402 33.5885 14.168C33.449 14.2959 33.2776 14.4005 33.0742 14.4818C32.8766 14.5574 32.6442 14.5952 32.3768 14.5952ZM32.4727 13.9588C32.7633 13.9588 33.0161 13.8891 33.2311 13.7496C33.4461 13.6043 33.6117 13.4009 33.728 13.1394C33.8442 12.8721 33.9023 12.5583 33.9023 12.198C33.9023 11.8377 33.8442 11.5268 33.728 11.2653C33.6117 10.998 33.4461 10.7946 33.2311 10.6551C33.0161 10.5098 32.7633 10.4372 32.4727 10.4372C32.1996 10.4372 31.9555 10.5098 31.7405 10.6551C31.5255 10.7946 31.3569 10.998 31.2349 11.2653C31.1129 11.5268 31.0518 11.8377 31.0518 12.198C31.0518 12.5583 31.1129 12.8721 31.2349 13.1394C31.3569 13.4009 31.5255 13.6043 31.7405 13.7496C31.9555 13.8891 32.1996 13.9588 32.4727 13.9588ZM40.5241 14.5952C40.2452 14.5952 40.004 14.5545 39.8006 14.4731C39.603 14.386 39.4345 14.2785 39.295 14.1506C39.1614 14.0228 39.051 13.8978 38.9638 13.7758L38.9028 14.4906H38.2403V8.21434H38.9725V10.6289C39.112 10.3558 39.3183 10.1495 39.5914 10.01C39.8646 9.87057 40.1697 9.80083 40.5067 9.80083C40.9251 9.80083 41.2912 9.90253 41.605 10.1059C41.9189 10.3093 42.1629 10.5912 42.3373 10.9515C42.5116 11.306 42.5988 11.7157 42.5988 12.1806C42.5988 12.6397 42.5116 13.0523 42.3373 13.4184C42.1629 13.7845 41.9189 14.0722 41.605 14.2814C41.297 14.4906 40.9367 14.5952 40.5241 14.5952ZM40.4283 13.9588C40.7014 13.9588 40.9426 13.8891 41.1518 13.7496C41.3668 13.6043 41.5353 13.4009 41.6573 13.1394C41.7852 12.8721 41.8491 12.5583 41.8491 12.198C41.8491 11.8377 41.7852 11.5268 41.6573 11.2653C41.5353 10.998 41.3668 10.7946 41.1518 10.6551C40.9426 10.5098 40.7014 10.4372 40.4283 10.4372C40.1377 10.4372 39.8849 10.5098 39.6699 10.6551C39.4549 10.7946 39.2892 10.998 39.173 11.2653C39.0568 11.5268 38.9987 11.8377 38.9987 12.198C38.9987 12.5583 39.0568 12.8721 39.173 13.1394C39.2892 13.4009 39.4549 13.6043 39.6699 13.7496C39.8849 13.8891 40.1377 13.9588 40.4283 13.9588ZM43.8282 16.4083L44.8655 14.0024H44.6127L42.8954 9.90543H43.6887L45.1095 13.4358L46.5914 9.90543H47.3498L44.5865 16.4083H43.8282Z" fill="#BCBCBC"/>
<path d="M61.9693 16.0108C60.1886 16.7551 58.0178 16.3121 56.7023 14.6806C55.4082 13.0774 55.4094 10.7548 56.7023 9.15171C58.0178 7.52141 60.1886 7.07839 61.9693 7.82148C62.9735 8.24087 64.1317 8.04004 64.9034 7.27686L66.1378 6.05414C62.735 2.68366 57.1054 2.82779 53.8934 6.4877C51.1812 9.57701 51.1812 14.2553 53.8934 17.3446C57.1054 21.0045 62.735 21.1486 66.1378 17.7782L64.9034 16.5554C64.1329 15.7923 62.9735 15.5902 61.9693 16.0108Z" fill="#BCBCBC"/>
<path d="M58.8324 11.9008C58.8324 12.6581 59.455 13.2748 60.2195 13.2748C60.9841 13.2748 61.6066 12.6581 61.6066 11.9008C61.6066 11.1436 60.9852 10.5269 60.2195 10.5269C59.4538 10.5269 58.8324 11.1436 58.8324 11.9008Z" fill="#BCBCBC"/>
<path d="M68.825 13.257V10.5966L69.8376 9.59356H73.5552V10.5316H70.1894L69.8042 10.9132V12.9392L70.1894 13.3208H73.5552V14.2588H69.8376L68.825 13.2558V13.257Z" fill="#BCBCBC"/>
<path d="M74.9806 9.59356H79.8361V14.26H74.9806V9.59356ZM78.8557 13.322V10.5328H75.961V13.322H78.8557Z" fill="#BCBCBC"/>
<path d="M81.6323 9.59356H85.449L86.4091 10.5836V12.5387H85.1091L86.86 14.26H85.6184L83.8937 12.5576H82.5996V14.26H81.6323V9.59356ZM85.4681 11.5806V10.8423L85.1997 10.5635H82.5984V11.5795H85.4669L85.4681 11.5806Z" fill="#BCBCBC"/>
<path d="M88.2196 9.59356H92.8855V10.5517H89.2322V11.4708H92.022V12.384H89.2322V13.2901H92.8855V14.2612H88.2196V9.59474V9.59356Z" fill="#BCBCBC"/>
<path d="M94.5852 9.59356H99.9047L100.885 10.5906V14.26H99.9441V10.9202L99.5588 10.5517H98.2194V14.26H97.2724V10.5517H95.5346V14.26H94.5876V9.59356H94.5852Z" fill="#BCBCBC"/>
<path d="M102.655 9.59356H107.321V10.5517H103.668V11.4708H106.457V12.384H103.668V13.2901H107.321V14.2612H102.655V9.59474V9.59356Z" fill="#BCBCBC"/>
<path d="M108.929 9.59356H112.954L113.967 10.5965V13.257L112.954 14.26H108.929V9.59356ZM112.601 13.322L112.986 12.9404V10.9143L112.601 10.5328H109.909V13.322H112.601Z" fill="#BCBCBC"/>
<path d="M115.574 9.59356H116.555V14.26H115.574V9.59356Z" fill="#BCBCBC"/>
<path d="M118.351 9.59356H122.174L123.186 10.5965V14.26H122.239V12.4667H119.298V14.26H118.351V9.59356ZM122.239 11.5357V10.8435L121.932 10.5328H119.298V11.5357H122.239Z" fill="#BCBCBC"/>
</g>
</svg>
