<svg xmlns="http://www.w3.org/2000/svg" width="72" height="72">
    <path data-name="Path 5613" d="M0 0h72v72H0z" style="fill-rule:evenodd;fill:none"/>
    <path data-name="Path 5614" d="m15 29 21-15.561v22.6h-7V59.8h-9.8a4.2 4.2 0 0 1-4.2-4.2V29z" style="fill:rgba(0,43,62,.4);fill-rule:evenodd"/>
    <path data-name="Path 5615" d="M35.839 11.781a.9.9 0 0 1 .392.016h.01a.874.874 0 0 1 .1.034l.025.01a.856.856 0 0 1 .189.113l-.08-.055q.032.02.062.042l.018.013 21 16.334A.9.9 0 0 1 57.9 29v25.667a5.567 5.567 0 0 1-5.566 5.566H19.667a5.567 5.567 0 0 1-5.567-5.566V29a.9.9 0 0 1 .347-.71l21-16.334a.909.909 0 0 1 .312-.157h.02zM21.1 53.233h-5.2v1.434a3.767 3.767 0 0 0 3.374 3.746l.2.015.194.005H21.1v-5.2zm15.8-38.728V35.1H43a.9.9 0 0 1 .893.787L43.9 36v22.433h8.434a3.767 3.767 0 0 0 3.762-3.573l.005-.193V29.44L36.9 14.505zM35.984 36.9H29.9v21.533h12.2V36.9h-6.116zM28.1 53.233h-5.2v5.2h5.2v-5.2zm0-7H15.9v5.2h12.2v-5.2zm-7-7h-5.2v5.2h5.2zm7 0h-5.2v5.2h5.2v-5.2zm7-7H15.9v5.2h12.2V36a.9.9 0 0 1 .787-.893L29 35.1h6.1v-2.867zm-14-6.833-5.2 4.044v.994h5.2zm1.8 5.038h12.2v-5.2H22.9v5.2zm12.2-15.932-11.478 8.927H35.1v-8.927z" style="fill:#475c6d"/>
</svg>
