<svg id="ic-ilustrativo-choose" xmlns="http://www.w3.org/2000/svg" width="72" height="72">
    <defs>
        <style>
            .cls-2{fill:#475c6d}
        </style>
    </defs>
    <path id="Path_5600" data-name="Path 5600" d="M0 0h72v72H0z" style="fill-rule:evenodd;fill:none"/>
    <path id="Path_5601" data-name="Path 5601" class="cls-2" d="M37 18.1a2.9 2.9 0 0 1 2.893 2.728L39.9 21v11a2.907 2.907 0 0 1-.094.734l-1.7-2.946V21A1.1 1.1 0 0 0 37 19.9h-7a1.1 1.1 0 0 0-1.1.982V32a1.1 1.1 0 0 0 .982 1.1H35.926l1.037 1.8H30a2.9 2.9 0 0 1-2.893-2.727V21a2.9 2.9 0 0 1 2.728-2.893h7.17zm19 0a2.9 2.9 0 0 1 2.893 2.728L58.9 21v11a2.889 2.889 0 0 1-.336 1.355L57.1 30.829V21a1.1 1.1 0 0 0-1.1-1.1h-7a1.1 1.1 0 0 0-1.1.982V30.1a1.773 1.773 0 0 0-.23 2.084l1.56 2.716H49a2.9 2.9 0 0 1-2.893-2.727L46.1 32V21a2.9 2.9 0 0 1 2.728-2.893h7.17zm-38 0a2.9 2.9 0 0 1 2.893 2.728V32a2.9 2.9 0 0 1-2.728 2.893L18 34.9h-7a2.9 2.9 0 0 1-2.893-2.73V21a2.9 2.9 0 0 1 2.728-2.893h7.17zm36.326 15 1.037 1.8h-2.046l-1.036-1.8h2.045zM18 19.9h-7a1.1 1.1 0 0 0-1.1.982V32a1.1 1.1 0 0 0 .982 1.1H18a1.1 1.1 0 0 0 1.1-.982V21a1.1 1.1 0 0 0-1.1-1.1z"/>
    <path id="Path_5602" data-name="Path 5602" d="M37 19.9a1.1 1.1 0 0 1 1.1 1.1v8.788l-1.88-3.257a1.773 1.773 0 0 0-2.283-.72l-.136.071a1.772 1.772 0 0 0-.648 2.419l2.772 4.8H30A1.1 1.1 0 0 1 28.9 32V21a1.1 1.1 0 0 1 1.1-1.1zm-19 0a1.1 1.1 0 0 1 1.1 1.1v11a1.1 1.1 0 0 1-1.1 1.1h-7A1.1 1.1 0 0 1 9.9 32V21a1.1 1.1 0 0 1 1.1-1.1zm38 0a1.1 1.1 0 0 1 1.1 1.1v9.827l-.884-1.53a1.773 1.773 0 0 0-2.283-.72l-.136.071a1.772 1.772 0 0 0-.648 2.419l1.177 2.033h-2.044l-1.55-2.683a1.773 1.773 0 0 0-2.282-.717l-.136.07a1.8 1.8 0 0 0-.419.336L47.9 21a1.1 1.1 0 0 1 1.1-1.1z" style="fill:rgba(0,43,62,.4);fill-rule:evenodd"/>
    <path id="Path_5603" data-name="Path 5603" class="cls-2" d="M52.917 27.11a3.53 3.53 0 0 0-1.406 1.5 3.541 3.541 0 0 0-5.485 1.122 3.55 3.55 0 0 0-4.08-.38 3.512 3.512 0 0 0-1.295 1.3l-2.894-5.012a3.541 3.541 0 1 0-6.133 3.541l10.35 17.926-5.433.325a5.336 5.336 0 0 0-2.335.7 3.388 3.388 0 0 0 .822 6.2l15.638 4.19a13.608 13.608 0 0 0 10.4-1.37 11.521 11.521 0 0 0 4.212-15.72l-7.524-13.026a3.545 3.545 0 0 0-4.837-1.3zm10.828 15.214a9.749 9.749 0 0 1-3.566 13.3 11.84 11.84 0 0 1-9.054 1.19l-15.64-4.19a1.616 1.616 0 0 1-.394-2.958 3.562 3.562 0 0 1 1.557-.469l6.862-.412a.886.886 0 0 0 .713-1.326L33.158 28.3a1.77 1.77 0 0 1 3.066-1.77l8.41 14.566a.886.886 0 0 0 1.533-.885l-3.983-6.9a1.77 1.77 0 1 1 3.066-1.771l3.984 6.9a.886.886 0 0 0 1.533-.885l-3.1-5.367a1.77 1.77 0 1 1 3.066-1.77l3.1 5.366a.886.886 0 0 0 1.533-.885l-2.213-3.833a1.77 1.77 0 1 1 3.066-1.771l7.525 13.033z"/>
</svg>
