<svg xmlns="http://www.w3.org/2000/svg" width="72" height="72">
    <path data-name="Path 5604" d="M0 0h72v72H0z" style="fill-rule:evenodd;fill:none"/>
    <path data-name="Path 5605" d="M24 17h26v32H24z" style="fill:rgba(0,43,62,.4);fill-rule:evenodd"/>
    <path data-name="Path 5606" d="M50.2 7.1a5.7 5.7 0 0 1 5.7 5.7v47.4a5.7 5.7 0 0 1-5.7 5.7H22.8a5.7 5.7 0 0 1-5.7-5.7V12.8a5.7 5.7 0 0 1 5.7-5.7zm0 1.8H22.8a3.9 3.9 0 0 0-3.9 3.9v47.4a3.9 3.9 0 0 0 3.9 3.9h27.4a3.9 3.9 0 0 0 3.9-3.9V12.8a3.9 3.9 0 0 0-3.9-3.9zM37 55.1a2.9 2.9 0 1 1-2.9 2.9 2.9 2.9 0 0 1 2.9-2.9zm0 1.8a1.1 1.1 0 1 0 1.1 1.1 1.1 1.1 0 0 0-1.1-1.1zM24 42.1a.9.9 0 0 1 .89.785l.01.115v5.1H30a.9.9 0 0 1 .89.785l.01.115a.9.9 0 0 1-.785.89L30 49.9h-6a.9.9 0 0 1-.89-.785L23.1 49v-6a.9.9 0 0 1 .9-.9zm26 0a.9.9 0 0 1 .9.9v6l-.007.113A.9.9 0 0 1 50 49.9h-6l-.113-.007A.9.9 0 0 1 43.1 49l.007-.113A.9.9 0 0 1 44 48.1h5.1V43l.007-.113A.9.9 0 0 1 50 42.1zm-9-7a4.9 4.9 0 0 1 4.893 4.68l.007.22v2a.9.9 0 0 1-1.789.113L44.1 42v-2a3.1 3.1 0 0 0-2.926-3.1H33a3.1 3.1 0 0 0-3.1 2.926V42a.9.9 0 0 1-1.789.113L28.1 42v-2a4.9 4.9 0 0 1 4.68-4.893L33 35.1h8zm-4-12a4.9 4.9 0 1 1-4.9 4.9 4.9 4.9 0 0 1 4.9-4.9zm0 1.8a3.1 3.1 0 1 0 3.1 3.1 3.1 3.1 0 0 0-3.1-3.1zm-7-8.8a.9.9 0 0 1 .113 1.789L30 17.9h-5.1V23a.9.9 0 0 1-.785.89L24 23.9a.9.9 0 0 1-.89-.785L23.1 23v-6a.9.9 0 0 1 .785-.89L24 16.1h6zm20 0 .113.007A.9.9 0 0 1 50.9 17v6l-.007.113A.9.9 0 0 1 50 23.9l-.113-.007A.9.9 0 0 1 49.1 23v-5.1H44l-.113-.007A.9.9 0 0 1 44 16.1h6zm-13.176-3.8a.9.9 0 0 1 .113 1.789l-.137.011a.9.9 0 0 1-.113-1.789l.137-.007z" style="fill:#475c6d"/>
</svg>
