<svg id="Layer_1" data-name="Layer 1" xmlns="http://www.w3.org/2000/svg" viewBox="0 0 72 72"><defs><style>.cls-1{fill:none;}.cls-2,.cls-3{fill:#fff;}.cls-3{fill-rule:evenodd;opacity:0.4;}</style></defs><path class="cls-1" d="M0,0H72V72H0Z"/><path class="cls-2" d="M62.05,10.1a2.7,2.7,0,0,1,2.7,2.7h0V47.9a2.7,2.7,0,0,1-2.7,2.7H37.3V61H47.65a.9.9,0,0,1,.11,1.79H25.15A.9.9,0,0,1,25,61H35.5V50.6H9.85a2.7,2.7,0,0,1-2.7-2.7h0V12.8a2.7,2.7,0,0,1,2.7-2.7Zm0,1.8H9.85a.9.9,0,0,0-.9.9V47.9a.9.9,0,0,0,.9.9h52.2a.9.9,0,0,0,.9-.9h0V12.8a.9.9,0,0,0-.9-.9ZM27.87,21.25a.91.91,0,0,1,.48-1.18.94.94,0,0,1,.7,0l15.27,6.36a.89.89,0,0,1,.48,1.18.84.84,0,0,1-.54.5L39,29.91l4.76,4.75a.91.91,0,0,1,0,1.28.9.9,0,0,1-1.17.08l-.09-.08-4.76-4.76-1.79,5.28a.9.9,0,0,1-1.14.57.94.94,0,0,1-.43-.3l-.06-.1-.06-.11Zm2.5,1.32L35,33.63l1.49-4.4a.9.9,0,0,1,.45-.51l.11,0,4.4-1.49Z"/><path class="cls-3" d="M30.37,22.57l11.06,4.61L37,28.67l-.11,0a1,1,0,0,0-.45.52L35,33.63Z"/></svg>