<svg xmlns="http://www.w3.org/2000/svg" width="72" height="72">
    <path data-name="Path 5640" d="M0 0h72v72H0z" style="fill-rule:evenodd;fill:none"/>
    <path data-name="Path 5641" d="M55.425 22.1a2.9 2.9 0 0 1 2.9 2.9v26.424h5.1a.9.9 0 0 1 .893.787l.007.113V54.5a4.75 4.75 0 0 1-4.75 4.75h-46.95a4.75 4.75 0 0 1-4.75-4.75v-2.175a.9.9 0 0 1 .9-.9h5.1V25a2.9 2.9 0 0 1 2.725-2.893l.17-.005zm7.1 31.122H42.774v2.128l-.007.113a.9.9 0 0 1-.893.787H30.325l-.113-.007a.9.9 0 0 1-.787-.893v-2.127H9.675V54.5a2.95 2.95 0 0 0 2.777 2.945H59.575a2.95 2.95 0 0 0 2.95-2.95zm-21.55 0h-9.75v1.227h9.75v-1.226zM55.425 23.9h-38.65a1.1 1.1 0 0 0-1.1 1.1v26.342h40.852V25a1.1 1.1 0 0 0-.982-1.1z" style="fill:#475c6d"/>
    <path data-name="Path 5642" d="m55.425 23.9.12.006a1.1 1.1 0 0 1 .982 1.1v26.336H15.672V25a1.1 1.1 0 0 1 1.1-1.1h38.65z" style="fill:rgba(0,43,62,.4);fill-rule:evenodd"/>
</svg>
