<svg xmlns="http://www.w3.org/2000/svg" width="72" height="72">
    <path data-name="Path 5667" d="M0 0h72v72H0z" style="fill-rule:evenodd;fill:none"/>
    <path data-name="Path 5668" d="M19.93 44.842h32.842V60H19.93z" style="fill:rgba(0,43,62,.4);fill-rule:evenodd"/>
    <path data-name="Path 5669" d="M49.316 11.1a3.426 3.426 0 0 1 3.426 3.426v2.527a3.429 3.429 0 0 1-2.526 3.307v3.371h.364A3.426 3.426 0 0 1 54 26.97V57.474a3.426 3.426 0 0 1-3.42 3.426H21.526a3.426 3.426 0 0 1-3.426-3.426V27.158a3.426 3.426 0 0 1 3.426-3.426h.363V20.36a3.428 3.428 0 0 1-2.52-3.12l-.006-.187v-2.527A3.426 3.426 0 0 1 22.79 11.1zm2.889 44.8H19.9v1.574a1.626 1.626 0 0 0 1.486 1.62l.14.006H50.58a1.626 1.626 0 0 0 1.626-1.626V55.9zm0-5H19.9v3.2h32.305zm0-5H19.9v3.2h32.305zm0-5H19.9v3.2h32.305zm0-5H19.9v3.2h32.305zm0-5H19.9v3.2h32.305zm-1.626-5.368H21.526a1.626 1.626 0 0 0-1.626 1.626V29.1h32.305v-1.942a1.625 1.625 0 0 0-1.486-1.62l-.14-.006zm-2.164-5.052H23.689v3.251h24.725zm.9-7.58H22.79a1.626 1.626 0 0 0-1.626 1.626v2.527a1.626 1.626 0 0 0 1.626 1.626h26.527a1.626 1.626 0 0 0 1.626-1.626v-2.527a1.626 1.626 0 0 0-1.626-1.626z" style="fill:#475c6d"/>
</svg>
